# xmcd
#
# Track frame offsets:
#	180
#	12942
#	27495
#	39715
#	54707
#	69297
#	82821
#	95407
#	108848
#	122918
#	135991
#	146545
#	158899
#	170929
#	183135
#	195102
#	207618
#	219194
#
# Disc length: 3073
#
# Revision: 4
# Processed by: cddbd v1.5.2PL0 Copyright (c) Steve Scherf et al.
# Submitted via: CDex 1.51
# Normalized: r3:DSETVAR1,TDELIM( - )
#
DISCID=f30bff12
DTITLE=Various Artist - Country - Nashville Dallas Hollywood 1927-1942 - Disc 2
DYEAR=1994
DGENRE=Country
TTITLE0=Jimmie's Texas Blues - Jimmie Rodgers
TTITLE1=Rockin Blues - Jimmie Davis
TTITLE2=The Days Of 49 - Jules Verne Allen
TTITLE3=The Dying Cowboy - Jules Verne Allen
TTITLE4=Rye Whiskey, Rye Whiskey - Tex Ritter
TTITLE5=I'll Go Ridin' Down That Old Texas Trail - Gene Autry
TTITLE6=Song Of The Bandit - Sons Of The Pioneers
TTITLE7=Cowboy Night Herd Song - Roy Rogers
TTITLE8=I Wanna Be A Cowboy's Sweetheart - Patsy Montana
TTITLE9=What's The Matter With The Mill - Bob Wills and His Texas Playboys
TTITLE10=Liza, Pull Down The Shades - Bob Wills and His Texas Playboys
TTITLE11=Hesitation Blues - Milton Brown and His Musical Brownies
TTITLE12=Alamo Rag - Adolf Hofner and His San Antonians
TTITLE13=Women, Women, Women - Shelly Lee Alley and His Alley Cats
TTITLE14=Fox And Hounds - Jimmie Revard and His Oklahoma Boys
TTITLE15=Wreck On The Highway - Roy Acuff and The Smokey Mountain Boys
TTITLE16=Fireballl Mail - Roy Acuff and The Smokey Mountain Boys
TTITLE17=I Ain't Honky Tonkin' Anymore - Ernest Tub and The Troubadours
EXTD=YEAR: 1994
EXTT0=
EXTT1=
EXTT2=
EXTT3=
EXTT4=
EXTT5=
EXTT6=
EXTT7=
EXTT8=
EXTT9=
EXTT10=
EXTT11=
EXTT12=
EXTT13=
EXTT14=
EXTT15=
EXTT16=
EXTT17=
PLAYORDER=
